<svg xmlns="http://www.w3.org/2000/svg" xmlns:xlink="http://www.w3.org/1999/xlink" width="957" height="465" viewBox="0 0 957 465"><defs><style>.a,.g,.h,.j,.l,.o,.p,.q,.s{fill:#fff;}.b,.f,.r,.t,.u{fill:#8c61ff;}.b{font-size:35px;}.b,.d,.p,.t{font-family:Poppins-SemiBold, Poppins;font-weight:600;}.c,.d,.e,.m,.s,.u{font-size:11px;}.c,.e,.g,.h,.j,.m,.o,.q,.s,.u{font-family:Poppins-Regular, Poppins;}.e{fill:#130daa;}.g{font-size:9px;}.h,.p{font-size:27px;}.i{font-size:15.749px;baseline-shift:8.999099846546754;}.j{font-size:26px;}.k{fill:#c5b0ff;}.l,.r{stroke:#8c61ff;}.m{opacity:0.5;}.n,.w{fill:none;}.n{stroke:#000;stroke-linecap:round;stroke-linejoin:round;stroke-width:3px;}.o{font-size:8px;}.q{font-size:19px;}.t{font-size:30px;}.v{stroke:none;}.x{filter:url(#c);}.y{filter:url(#a);}</style><filter id="a" x="0" y="0" width="957" height="388" filterUnits="userSpaceOnUse"><feOffset input="SourceAlpha"/><feGaussianBlur stdDeviation="3" result="b"/><feFlood flood-opacity="0.161"/><feComposite operator="in" in2="b"/><feComposite in="SourceGraphic"/></filter><filter id="c" x="0" y="392" width="957" height="73" filterUnits="userSpaceOnUse"><feOffset input="SourceAlpha"/><feGaussianBlur stdDeviation="3" result="d"/><feFlood flood-opacity="0.161"/><feComposite operator="in" in2="d"/><feComposite in="SourceGraphic"/></filter></defs><g transform="translate(-806 -279)"><g transform="translate(712.427 57)"><g class="y" transform="matrix(1, 0, 0, 1, 93.57, 222)"><rect class="a" width="939" height="370" rx="9" transform="translate(9 9)"/></g><text class="b" transform="translate(124.573 283)"><tspan x="0" y="0">Team Name</tspan></text><text class="c" transform="translate(124.573 326)"><tspan x="0" y="12">Pellentesque habitant morbi tristique senectus et netus et malesuada fames ac turpis egestas. Ut arcu libero, pulvinar non massa sed, accumsan scelerisque dui. </tspan><tspan x="0" y="29">Morbi purus mauris, vulputate quis felis nec, fermentum aliquam orci. Quisque ornare iaculis placerat. Class aptent taciti sociosqu ad litora torquent per conubia </tspan><tspan x="0" y="46">nostra, per inceptos himenaeos. In commodo sem arcu, sed fermentum tortor consequat vel. Phasellus lacinia quam quis leo tincidunt vehicula.</tspan></text><text class="c" transform="translate(679.573 385)"><tspan x="0" y="12">LoremIpsum</tspan></text><text class="d" transform="translate(124.573 397)"><tspan x="0" y="0">Repo -</tspan></text><text class="d" transform="translate(124.573 320)"><tspan x="0" y="0">Abstract - </tspan></text><text class="d" transform="translate(612.573 397)"><tspan x="0" y="0">Analysis - </tspan></text><text class="d" transform="translate(124.573 418)"><tspan x="0" y="0">Resource -</tspan></text><text class="e" transform="translate(169.573 397)"><tspan x="0" y="0">https://sample.github.io</tspan></text><text class="e" transform="translate(197.573 419)"><tspan x="0" y="0">https://sample.github.io</tspan></text><g transform="translate(633.762 440.332)"><path class="f" d="M4.971,0H382.21a4.971,4.971,0,0,1,4.971,4.971V77.878a4.971,4.971,0,0,1-4.971,4.971H4.971A4.971,4.971,0,0,1,0,77.878V4.971A4.971,4.971,0,0,1,4.971,0Z" transform="translate(0)"/><text class="g" transform="translate(10.811 14.668)"><tspan x="0" y="0">Overall Statistics</tspan></text><g transform="translate(16.927 26.926)"><text class="g" transform="translate(27.883 42.743)"><tspan x="-27.963" y="0">Overall Rank</tspan></text><text class="h" transform="translate(19.883 27.743)"><tspan x="0" y="0">1</tspan><tspan class="i" y="0">st</tspan></text></g><g transform="translate(134.111 26.926)"><text class="g" transform="translate(30.7 42.743)"><tspan x="-30.915" y="0">Problem Rank</tspan></text><text class="h" transform="translate(22.7 27.743)"><tspan x="0" y="0">1</tspan><tspan class="i" y="0">st</tspan></text></g><text class="g" transform="translate(297.811 69.668)"><tspan x="-29.709" y="0">Overall Score</tspan></text><text class="j" transform="translate(299.811 53.668)"><tspan x="-15.912" y="0">36</tspan></text></g><g transform="translate(887.596 452.638)"><path class="k" d="M672.37,235.972a35.119,35.119,0,0,1,34.791,30.347,5.472,5.472,0,0,0,5.408,4.765h.07a5.458,5.458,0,0,0,5.4-6.2,46.09,46.09,0,0,0-91.342,0,5.458,5.458,0,0,0,5.4,6.2h.07a5.472,5.472,0,0,0,5.408-4.765A35.119,35.119,0,0,1,672.37,235.972Z" transform="translate(-626.649 -225)"/><path class="a" d="M5.52,38.989H5.451a5.459,5.459,0,0,1-5.4-6.2,45.806,45.806,0,0,1,7.017-18.9A46.329,46.329,0,0,1,21.141,0L26.21,9.553l-.051.274a35.127,35.127,0,0,0-15.23,24.4,5.532,5.532,0,0,1-1.813,3.4A5.425,5.425,0,0,1,5.52,38.989Z" transform="translate(0.001 7.095)"/></g><g class="l" transform="translate(124.573 540)"><rect class="v" width="897" height="33" rx="9"/><rect class="w" x="0.5" y="0.5" width="896" height="32" rx="8.5"/></g><text class="m" transform="translate(135.573 560)"><tspan x="0" y="0">Additional Comments...</tspan></text><path class="n" d="M18.779,9.39,9.389,0ZM0,9.39,9.389,0Z" transform="translate(1001.92 256.683)"/><g transform="translate(124.308 440.796)"><g transform="translate(0 0)"><rect class="f" width="93" height="82" rx="9" transform="translate(0.264 0.204)"/><path class="k" d="M0,0H93a0,0,0,0,1,0,0V34a9,9,0,0,1-9,9H9a9,9,0,0,1-9-9V0A0,0,0,0,1,0,0Z" transform="translate(0.264 39.204)"/><text class="o" transform="translate(6.264 14.204)"><tspan x="0" y="0">Technical</tspan><tspan x="0" y="12">Implementation</tspan></text><text class="p" transform="translate(38.264 70.204)"><tspan x="0" y="0">9</tspan></text><text class="q" transform="translate(66.264 67.204)"><tspan x="0" y="0">-</tspan></text><text class="q" transform="translate(29.264 67.204)"><tspan x="-12.977" y="0">+</tspan></text></g></g><g transform="translate(249.052 440.796)"><g transform="translate(0 0)"><rect class="f" width="95" height="82" rx="9" transform="translate(-0.479 0.204)"/><path class="k" d="M0,0H95a0,0,0,0,1,0,0V34a9,9,0,0,1-9,9H9a9,9,0,0,1-9-9V0A0,0,0,0,1,0,0Z" transform="translate(-0.479 39.204)"/><text class="g" transform="translate(7.521 15.204)"><tspan x="0" y="0">Design</tspan></text><text class="p" transform="translate(38.521 70.204)"><tspan x="0" y="0">9</tspan></text><text class="q" transform="translate(66.521 67.204)"><tspan x="0" y="0">-</tspan></text><text class="q" transform="translate(29.521 67.204)"><tspan x="-12.977" y="0">+</tspan></text></g></g><g transform="translate(375.686 440.796)"><g transform="translate(0 0)"><rect class="f" width="94" height="82" rx="9" transform="translate(-0.113 0.204)"/><path class="k" d="M0,0H94a0,0,0,0,1,0,0V34a9,9,0,0,1-9,9H9a9,9,0,0,1-9-9V0A0,0,0,0,1,0,0Z" transform="translate(-0.113 39.204)"/><text class="o" transform="translate(6.887 14.204)"><tspan x="0" y="0">Practical</tspan><tspan x="0" y="12">Implementation</tspan></text><text class="p" transform="translate(37.887 70.204)"><tspan x="0" y="0">9</tspan></text><text class="q" transform="translate(65.887 67.204)"><tspan x="0" y="0">-</tspan></text><text class="q" transform="translate(28.887 67.204)"><tspan x="-12.977" y="0">+</tspan></text></g></g><g transform="translate(500.43 440.796)"><g transform="translate(0 0)"><rect class="f" width="94" height="82" rx="9" transform="translate(0.143 0.204)"/><path class="k" d="M0,0H94a0,0,0,0,1,0,0V34a9,9,0,0,1-9,9H9a9,9,0,0,1-9-9V0A0,0,0,0,1,0,0Z" transform="translate(0.143 39.204)"/><text class="o" transform="translate(7.143 14.204)"><tspan x="0" y="0">Technical</tspan><tspan x="0" y="12">Implementation</tspan></text><text class="p" transform="translate(39.143 70.204)"><tspan x="0" y="0">9</tspan></text><text class="q" transform="translate(66.143 67.204)"><tspan x="0" y="0">-</tspan></text><text class="q" transform="translate(30.143 67.204)"><tspan x="-12.977" y="0">+</tspan></text></g></g><g transform="translate(908.682 252.736)"><g class="r" transform="translate(-0.11 0.264)"><rect class="v" width="79" height="16"/><rect class="w" x="0.5" y="0.5" width="78" height="15"/></g><text class="s" transform="translate(10.89 13.264)"><tspan x="0" y="0">Evaluated</tspan></text></g></g><g transform="translate(712 -290.683)"><g class="x" transform="matrix(1, 0, 0, 1, 94, 569.68)"><rect class="a" width="939" height="55" rx="9" transform="translate(9 401)"/></g><text class="t" transform="translate(124 1009.683)"><tspan x="0" y="0">Team Name</tspan></text><path class="n" d="M18.78,0,9.39,9.39ZM0,0,9.39,9.39Z" transform="translate(1001.986 994.475)"/><g transform="translate(899.493 990.332)"><g class="l" transform="translate(-0.493 0.351)"><rect class="v" width="87" height="16"/><rect class="w" x="0.5" y="0.5" width="86" height="15"/></g><text class="u" transform="translate(76.507 12.351)"><tspan x="-70.334" y="0">Unevaluated</tspan></text></g></g></g></svg>