<svg xmlns="http://www.w3.org/2000/svg" xmlns:xlink="http://www.w3.org/1999/xlink" width="958" height="496.02" viewBox="0 0 958 496.02"><defs><style>.a,.e,.f,.g{fill:#fff;}.b,.c,.d,.j{fill:#8c61ff;}.b{opacity:0.51;}.c{font-size:35px;}.c,.j{font-family:Poppins-SemiBold, Poppins;font-weight:600;}.e{font-size:20px;}.e,.h,.i,.k{font-family:Poppins-Regular, Poppins;}.f{stroke:#fff;stroke-linecap:round;stroke-linejoin:round;stroke-width:3px;}.g{stroke:#8c61ff;}.h{font-size:13px;}.i{font-size:15px;}.j{font-size:38px;}.k{font-size:14px;}.l{stroke:none;}.m{fill:none;}.n{filter:url(#e);}.o{filter:url(#c);}.p{filter:url(#a);}</style><filter id="a" x="0" y="404.02" width="958" height="92" filterUnits="userSpaceOnUse"><feOffset input="SourceAlpha"/><feGaussianBlur stdDeviation="3" result="b"/><feFlood flood-opacity="0.161"/><feComposite operator="in" in2="b"/><feComposite in="SourceGraphic"/></filter><filter id="c" x="0.254" y="0" width="957.491" height="205.293" filterUnits="userSpaceOnUse"><feOffset input="SourceAlpha"/><feGaussianBlur stdDeviation="3" result="d"/><feFlood flood-opacity="0.161"/><feComposite operator="in" in2="d"/><feComposite in="SourceGraphic"/></filter><filter id="e" x="0.254" y="202" width="957.491" height="205.293" filterUnits="userSpaceOnUse"><feOffset input="SourceAlpha"/><feGaussianBlur stdDeviation="3" result="f"/><feFlood flood-opacity="0.161"/><feComposite operator="in" in2="f"/><feComposite in="SourceGraphic"/></filter></defs><g transform="translate(9.254 9)"><g transform="translate(0.135 403.82)"><g class="p" transform="matrix(1, 0, 0, 1, -9.39, -412.82)"><rect class="a" width="940" height="74" rx="9" transform="translate(9 413.02)"/></g><path class="b" d="M-147.749-166.192v13.626h-13.275V-144h13.275v13.626h9.272V-144H-125.2v-8.569h-13.275v-13.626Z" transform="translate(612.998 184.903)"/></g><g transform="translate(0)"><g class="o" transform="matrix(1, 0, 0, 1, -9.25, -9)"><path class="a" d="M4.974,0H934.518c2.747,0,4.974,2.576,4.974,5.753V181.54c0,3.177-2.227,5.753-4.974,5.753H4.974C2.227,187.293,0,184.717,0,181.54V5.753C0,2.576,2.227,0,4.974,0Z" transform="translate(9.25 9)"/></g><text class="c" transform="translate(30.746 56.02)"><tspan x="0" y="0">Event 1</tspan></text><g transform="translate(781.346 111.583)"><rect class="d" width="130" height="49" rx="9" transform="translate(0.399 0.437)"/><text class="e" transform="translate(26.399 31.437)"><tspan x="0" y="0">View</tspan></text><path class="f" d="M19.563,0,9.782,10.6ZM0,0,9.782,10.6Z" transform="translate(100.316 35.411) rotate(-90)"/></g><g transform="translate(31.074 102.743)"><g class="g" transform="translate(-0.328 0.276)"><rect class="l" width="260" height="58" rx="9"/><rect class="m" x="0.5" y="0.5" width="259" height="57" rx="8.5"/></g><text class="h" transform="translate(15.672 23.276)"><tspan x="0" y="0">No. of</tspan><tspan x="0" y="20">Enrolled Teams</tspan></text><text class="i" transform="translate(152.672 38.276)"><tspan x="0" y="0">-</tspan></text><text class="j" transform="translate(177.672 43.276)"><tspan x="0" y="0">100</tspan></text></g><g transform="translate(322.785 102.743)"><g class="g" transform="translate(-0.039 0.276)"><rect class="l" width="157" height="58" rx="9"/><rect class="m" x="0.5" y="0.5" width="156" height="57" rx="8.5"/></g><text class="h" transform="translate(15.961 23.276)"><tspan x="0" y="0">No. of</tspan><tspan x="0" y="20">Reviews</tspan></text><text class="i" transform="translate(94.961 38.276)"><tspan x="0" y="0">-</tspan></text><text class="j" transform="translate(118.961 43.276)"><tspan x="0" y="0">3</tspan></text></g><text class="k" transform="translate(166.746 56.02)"><tspan x="0" y="0">10th Jan 2019</tspan></text></g><g transform="translate(0 202)"><g class="n" transform="matrix(1, 0, 0, 1, -9.25, -211)"><path class="a" d="M4.974,0H934.518c2.747,0,4.974,2.576,4.974,5.753V181.54c0,3.177-2.227,5.753-4.974,5.753H4.974C2.227,187.293,0,184.717,0,181.54V5.753C0,2.576,2.227,0,4.974,0Z" transform="translate(9.25 211)"/></g><text class="c" transform="translate(30.746 56.02)"><tspan x="0" y="0">Event 2</tspan></text><g transform="translate(781.346 111.583)"><rect class="d" width="130" height="49" rx="9" transform="translate(0.399 0.437)"/><text class="e" transform="translate(26.399 31.437)"><tspan x="0" y="0">View</tspan></text><path class="f" d="M19.563,0,9.782,10.6ZM0,0,9.782,10.6Z" transform="translate(100.316 35.411) rotate(-90)"/></g><g transform="translate(31.074 102.743)"><g class="g" transform="translate(-0.328 0.276)"><rect class="l" width="260" height="58" rx="9"/><rect class="m" x="0.5" y="0.5" width="259" height="57" rx="8.5"/></g><text class="h" transform="translate(15.672 23.276)"><tspan x="0" y="0">No. of</tspan><tspan x="0" y="20">Enrolled Teams</tspan></text><text class="i" transform="translate(152.672 38.276)"><tspan x="0" y="0">-</tspan></text><text class="j" transform="translate(177.672 43.276)"><tspan x="0" y="0">350</tspan></text></g><g transform="translate(322.785 102.743)"><g class="g" transform="translate(-0.039 0.276)"><rect class="l" width="157" height="58" rx="9"/><rect class="m" x="0.5" y="0.5" width="156" height="57" rx="8.5"/></g><text class="h" transform="translate(15.961 23.276)"><tspan x="0" y="0">No. of</tspan><tspan x="0" y="20">Reviews</tspan></text><text class="i" transform="translate(94.961 38.276)"><tspan x="0" y="0">-</tspan></text><text class="j" transform="translate(118.961 43.276)"><tspan x="0" y="0">4</tspan></text></g><text class="k" transform="translate(166.746 56.02)"><tspan x="0" y="0">14th Jan 2020</tspan></text></g></g></svg>