<svg xmlns="http://www.w3.org/2000/svg" xmlns:xlink="http://www.w3.org/1999/xlink" width="959.359" height="624.885" viewBox="0 0 959.359 624.885"><defs><style>.a,.d,.e,.f,.k{fill:#fff;}.b,.c,.i,.j,.l,.m,.n,.o{fill:#8c61ff;}.b{font-size:35px;}.b,.i,.l{font-family:Poppins-SemiBold, Poppins;font-weight:600;}.d{font-size:19px;}.d,.g,.h,.k,.m,.n{font-family:Poppins-Regular, Poppins;}.e{stroke:#fff;stroke-linecap:round;stroke-linejoin:round;stroke-width:3px;}.f,.j{stroke:#8c61ff;}.g{font-size:9px;}.h,.k{font-size:10px;}.i{font-size:29px;}.l{font-size:30px;}.m{font-size:22px;}.n{font-size:24px;}.o{opacity:0.51;}.p{stroke:none;}.q{fill:none;}.r{filter:url(#g);}.s{filter:url(#e);}.t{filter:url(#c);}.u{filter:url(#a);}</style><filter id="a" x="0" y="0" width="959.359" height="173.737" filterUnits="userSpaceOnUse"><feOffset input="SourceAlpha"/><feGaussianBlur stdDeviation="3" result="b"/><feFlood flood-opacity="0.161"/><feComposite operator="in" in2="b"/><feComposite in="SourceGraphic"/></filter><filter id="c" x="0" y="174.885" width="957.917" height="177.589" filterUnits="userSpaceOnUse"><feOffset input="SourceAlpha"/><feGaussianBlur stdDeviation="3" result="d"/><feFlood flood-opacity="0.161"/><feComposite operator="in" in2="d"/><feComposite in="SourceGraphic"/></filter><filter id="e" x="0" y="353.885" width="957.917" height="177.589" filterUnits="userSpaceOnUse"><feOffset input="SourceAlpha"/><feGaussianBlur stdDeviation="3" result="f"/><feFlood flood-opacity="0.161"/><feComposite operator="in" in2="f"/><feComposite in="SourceGraphic"/></filter><filter id="g" x="0" y="532.885" width="958" height="92" filterUnits="userSpaceOnUse"><feOffset input="SourceAlpha"/><feGaussianBlur stdDeviation="3" result="h"/><feFlood flood-opacity="0.161"/><feComposite operator="in" in2="h"/><feComposite in="SourceGraphic"/></filter></defs><g transform="translate(-842 -249.115)"><g transform="translate(851 226)"><g class="u" transform="matrix(1, 0, 0, 1, -9, 23.11)"><path class="a" d="M4.984,0H936.375a4.887,4.887,0,0,1,4.984,4.784v146.17a4.887,4.887,0,0,1-4.984,4.784H4.984A4.887,4.887,0,0,1,0,150.953V4.784A4.887,4.887,0,0,1,4.984,0Z" transform="translate(9 9)"/></g><text class="b" transform="translate(23 80)"><tspan x="0" y="0">Review 1</tspan></text><g transform="translate(764.651 117.68)"><rect class="c" width="163" height="45" rx="9" transform="translate(-0.651 0.32)"/><text class="d" transform="translate(22.349 29.32)"><tspan x="0" y="0">Evaluate</tspan></text><path class="e" d="M17.831,0,8.915,9.659ZM0,0,8.915,9.659Z" transform="translate(135.169 32.191) rotate(-90)"/></g><g transform="translate(23 118)"><g class="f"><rect class="p" width="196" height="45" rx="9"/><rect class="q" x="0.5" y="0.5" width="195" height="44" rx="8.5"/></g><text class="g" transform="translate(12 17)"><tspan x="0" y="0">No. of</tspan><tspan x="0" y="13">Qualifying Teams</tspan></text><text class="h" transform="translate(116 28)"><tspan x="0" y="0">-</tspan></text><text class="i" transform="translate(134 33)"><tspan x="0" y="0">100</tspan></text></g><g transform="translate(241.077 118)"><g class="f" transform="translate(-0.077)"><rect class="p" width="189" height="45" rx="9"/><rect class="q" x="0.5" y="0.5" width="188" height="44" rx="8.5"/></g><text class="g" transform="translate(10.923 17)"><tspan x="0" y="0">No. of</tspan><tspan x="0" y="13">Evaluated Teams</tspan></text><text class="h" transform="translate(120.923 28)"><tspan x="0" y="0">-</tspan></text><text class="i" transform="translate(136.923 33)"><tspan x="0" y="0">89</tspan></text></g></g><g transform="translate(851 433)"><g class="t" transform="matrix(1, 0, 0, 1, -9, -183.89)"><path class="a" d="M4.976,0H934.941a4.939,4.939,0,0,1,4.976,4.9V154.687a4.939,4.939,0,0,1-4.976,4.9H4.976A4.939,4.939,0,0,1,0,154.687V4.9A4.939,4.939,0,0,1,4.976,0Z" transform="translate(9 183.89)"/></g><text class="b" transform="translate(23 56)"><tspan x="0" y="0">Review 2</tspan></text><g transform="translate(23 86.166)"><g class="f" transform="translate(0 -0.166)"><rect class="p" width="279" height="47" rx="9"/><rect class="q" x="0.5" y="0.5" width="278" height="46" rx="8.5"/></g><g class="j" transform="translate(0 -0.166)"><rect class="p" width="157" height="47" rx="9"/><rect class="q" x="0.5" y="0.5" width="156" height="46" rx="8.5"/></g><text class="k" transform="translate(8 19.834)"><tspan x="0" y="0">Qualifying</tspan><tspan x="0" y="16">Rank</tspan></text><g transform="translate(177.616 3.535)"><text class="l" transform="translate(25.384 32.3)"><tspan x="0" y="0">25</tspan></text><text class="m" transform="translate(73.384 28.3)"><tspan x="0" y="0">-</tspan></text><text class="n" transform="translate(16.384 30.3)"><tspan x="-16.392" y="0">+</tspan></text></g><path class="e" d="M15.371,0,7.685,8.326ZM0,0,7.685,8.326Z" transform="translate(117.56 20.294)"/></g><g transform="translate(326.98 86.166)"><g class="f" transform="translate(0.02 -0.166)"><rect class="p" width="190" height="47" rx="9"/><rect class="q" x="0.5" y="0.5" width="189" height="46" rx="8.5"/></g><text class="h" transform="translate(12.02 18.834)"><tspan x="0" y="0">No. of</tspan><tspan x="0" y="16">Qualifying Teams</tspan></text><text class="h" transform="translate(121.02 28.834)"><tspan x="0" y="0">-</tspan></text><text class="l" transform="translate(140.02 35.834)"><tspan x="0" y="0">25</tspan></text></g><g transform="translate(544.361 86.166)"><g class="f" transform="translate(-0.361 -0.166)"><rect class="p" width="186" height="47" rx="9"/><rect class="q" x="0.5" y="0.5" width="185" height="46" rx="8.5"/></g><text class="h" transform="translate(12.639 18.834)"><tspan x="0" y="0">No. of</tspan><tspan x="0" y="16">Evaluated Teams</tspan></text><text class="h" transform="translate(126.639 28.834)"><tspan x="0" y="0">-</tspan></text><text class="l" transform="translate(142.639 35.834)"><tspan x="0" y="0">25</tspan></text></g><g transform="translate(764.651 86.68)"><rect class="c" width="163" height="45" rx="9" transform="translate(-0.651 0.32)"/><text class="d" transform="translate(22.349 29.32)"><tspan x="0" y="0">Evaluate</tspan></text><path class="e" d="M17.831,0,8.915,9.659ZM0,0,8.915,9.659Z" transform="translate(135.169 32.191) rotate(-90)"/></g></g><g transform="translate(851 612)"><g class="s" transform="matrix(1, 0, 0, 1, -9, -362.89)"><path class="a" d="M4.976,0H934.941a4.939,4.939,0,0,1,4.976,4.9V154.687a4.939,4.939,0,0,1-4.976,4.9H4.976A4.939,4.939,0,0,1,0,154.687V4.9A4.939,4.939,0,0,1,4.976,0Z" transform="translate(9 362.89)"/></g><text class="b" transform="translate(23 56)"><tspan x="0" y="0">Review 2</tspan></text><g transform="translate(23 86.166)"><g class="f" transform="translate(0 -0.166)"><rect class="p" width="279" height="47" rx="9"/><rect class="q" x="0.5" y="0.5" width="278" height="46" rx="8.5"/></g><g class="j" transform="translate(0 -0.166)"><rect class="p" width="157" height="47" rx="9"/><rect class="q" x="0.5" y="0.5" width="156" height="46" rx="8.5"/></g><text class="k" transform="translate(8 19.834)"><tspan x="0" y="0">Qualifying</tspan><tspan x="0" y="16">Rank</tspan></text><g transform="translate(177.616 3.535)"><text class="l" transform="translate(43.384 32.3)"><tspan x="-15.12" y="0">10</tspan></text><text class="m" transform="translate(73.384 28.3)"><tspan x="0" y="0">-</tspan></text><text class="n" transform="translate(16.384 30.3)"><tspan x="-16.392" y="0">+</tspan></text></g><path class="e" d="M15.371,0,7.685,8.326ZM0,0,7.685,8.326Z" transform="translate(117.56 20.294)"/></g><g transform="translate(326.98 86.166)"><g class="f" transform="translate(0.02 -0.166)"><rect class="p" width="190" height="47" rx="9"/><rect class="q" x="0.5" y="0.5" width="189" height="46" rx="8.5"/></g><text class="h" transform="translate(12.02 18.834)"><tspan x="0" y="0">No. of</tspan><tspan x="0" y="16">Qualifying Teams</tspan></text><text class="h" transform="translate(121.02 28.834)"><tspan x="0" y="0">-</tspan></text><text class="l" transform="translate(140.02 35.834)"><tspan x="0" y="0">10</tspan></text></g><g transform="translate(544.361 86.166)"><g class="f" transform="translate(-0.361 -0.166)"><rect class="p" width="186" height="47" rx="9"/><rect class="q" x="0.5" y="0.5" width="185" height="46" rx="8.5"/></g><text class="h" transform="translate(12.639 18.834)"><tspan x="0" y="0">No. of</tspan><tspan x="0" y="16">Evaluated Teams</tspan></text><text class="h" transform="translate(126.639 28.834)"><tspan x="0" y="0">-</tspan></text><text class="l" transform="translate(142.639 35.834)"><tspan x="0" y="0">5</tspan></text></g><g transform="translate(764.651 86.68)"><rect class="c" width="163" height="45" rx="9" transform="translate(-0.651 0.32)"/><text class="d" transform="translate(22.349 29.32)"><tspan x="0" y="0">Evaluate</tspan></text><path class="e" d="M17.831,0,8.915,9.659ZM0,0,8.915,9.659Z" transform="translate(135.169 32.191) rotate(-90)"/></g></g><g transform="translate(851.389 790.801)"><g class="r" transform="matrix(1, 0, 0, 1, -9.39, -541.69)"><rect class="a" width="940" height="74" rx="9" transform="translate(9 541.89)"/></g><path class="o" d="M-147.749-166.192v13.626h-13.275V-144h13.275v13.626h9.272V-144H-125.2v-8.569h-13.275v-13.626Z" transform="translate(612.998 184.903)"/></g></g></svg>